<svg xmlns="http://www.w3.org/2000/svg" viewBox="0 0 323.73 82.84"><defs><style>.cls-1{fill:#1d1d1b;}</style></defs><g id="Layer_2" data-name="Layer 2"><g id="Layer_1-2" data-name="Layer 1"><path class="cls-1" d="M6.14,56.74C4.09,45.83,2,36.28,0,28.16c1.77-.62,3.54-1.22,5.32-1.82Q7.26,36,9.2,47.51q2.37-10.93,4.73-24c2.07-.65,4.15-1.29,6.22-1.91q2.28,13.12,4.56,28.15,2-14.52,4-30.64c1.77-.49,3.54-1,5.31-1.45q-3.18,24.56-6.34,45.67c-1.86-.53-3.72-1.06-5.58-1.61q-2.58-16-5.17-29.66-2.56,14.44-5.14,26.49C9.91,58,8,57.36,6.14,56.74Z" transform="translate(0)"/><path class="cls-1" d="M35.64,41.69a56.6,56.6,0,0,1,1.2-12.54A36.29,36.29,0,0,1,39.28,22a20.08,20.08,0,0,1,3.39-5.33,11.43,11.43,0,0,1,5.66-3.48c3.87-1,7,.88,9.32,5.89s3.5,12.61,3.5,22.44S60,58.8,57.67,63.78s-5.41,6.84-9.27,5.88-7-4.21-9.31-9.19S35.64,49.36,35.64,41.69Zm5.45-.33c0,5.78.69,10.19,2.06,13.42s3.11,5.1,5.23,5.44,3.86-1,5.22-4.13,2-8.17,2-14.9-.66-11.58-2-14.64-3.08-4.35-5.27-4-4,2.2-5.29,5.35S41.09,35.49,41.09,41.36Z" transform="translate(0)"/><path class="cls-1" d="M65.34,72.41v-62Q71,9.24,76.61,8.26c2.83-.5,4.9-.24,6.19.79s2.32,3.09,3.09,6.18a44.85,44.85,0,0,1,1.17,10.85,40.19,40.19,0,0,1-1.77,13c-1.17,3.4-2.93,5.48-5.26,6.29a26.83,26.83,0,0,1,2.88,5.8c.75,2.12,1.77,5.88,3.06,11.4q1.62,6.92,3.25,14c-2.15-.31-4.29-.65-6.43-1q-2-7.75-3.88-15.24c-1.38-5.35-2.32-8.63-2.83-10a7.26,7.26,0,0,0-1.61-2.81,4.13,4.13,0,0,0-2.7-.81l-1.08,0V73.45C68.9,73.11,67.12,72.77,65.34,72.41Zm5.35-36,4-.11c2.57-.08,4.18-.39,4.82-1A5.82,5.82,0,0,0,81,32.47a20,20,0,0,0,.55-5.12,16.83,16.83,0,0,0-.72-5.47,3.49,3.49,0,0,0-2-2.44,17.69,17.69,0,0,0-3.91.23c-1.4.17-2.79.33-4.18.51Z" transform="translate(0)"/><path class="cls-1" d="M92.2,77V5.78c1.8-.26,3.59-.5,5.39-.74V37.32c3.63-10.81,7.27-22,10.9-33.59,2.43-.26,4.85-.51,7.27-.73C112.4,13.28,109,23.35,105.68,33.13c3.54,15.11,7.09,30.72,10.63,46.7q-3.5-.33-7-.7Q105.63,61,102,43.65q-2.19,6.15-4.37,12.12v22C95.79,77.5,94,77.25,92.2,77Z" transform="translate(0)"/><path class="cls-1" d="M118.94,80.06V2.71c1.81-.16,3.61-.31,5.42-.44V80.5C122.55,80.37,120.75,80.22,118.94,80.06Z" transform="translate(0)"/><path class="cls-1" d="M128.15,55.14l5.27-1.4c.32,5.25,1,9.11,1.93,11.61s2.29,3.78,3.93,3.83,3.07-1,3.95-3.2a20.56,20.56,0,0,0,1.33-7.74,18.12,18.12,0,0,0-.56-4.87,8.3,8.3,0,0,0-1.95-3.5,42.52,42.52,0,0,0-4.34-3.53,17.39,17.39,0,0,1-6.12-7.87,44.91,44.91,0,0,1-2.47-15.87,53.34,53.34,0,0,1,1.16-11.34,21.06,21.06,0,0,1,3.35-8.2A7,7,0,0,1,138.92,0q5.06-.24,7.61,6.35c1.71,4.39,2.6,10.31,2.69,17.72l-5.43.79q-.34-6.2-1.49-8.88c-.76-1.79-1.91-2.65-3.44-2.6s-2.81,1.06-3.7,3a12.15,12.15,0,0,0-.86,5,12.73,12.73,0,0,0,.81,4.81c.68,1.69,2.34,3.44,5,5.27A21,21,0,0,1,146,37.18a25,25,0,0,1,3,8.2A65.52,65.52,0,0,1,150,58.25a62.72,62.72,0,0,1-1.28,13q-1.29,6-3.63,8.9a6.83,6.83,0,0,1-5.85,2.7c-3.4-.16-6-2.66-7.82-7.38S128.5,64,128.15,55.14Z" transform="translate(0)"/><path class="cls-1" d="M154.58,81.87V.9c1.8,0,3.61-.05,5.42-.05V32.76c3.55,0,7.1,0,10.64,0V.92c1.81,0,3.62.07,5.43.13V81.72c-1.81.06-3.62.1-5.43.13V46.46H160V81.92C158.19,81.92,156.38,81.9,154.58,81.87Z" transform="translate(0)"/><path class="cls-1" d="M181.64,81.53V66.14l5.15-.14V81.3C185.08,81.39,183.36,81.46,181.64,81.53Z" transform="translate(0)"/><path class="cls-1" d="M192.12,1.77q5.37.33,10.73.77a11.78,11.78,0,0,1,4.74,1.18,7.7,7.7,0,0,1,2.8,3.41,27.26,27.26,0,0,1,2.05,6.53,44.44,44.44,0,0,1,.83,8.92,43.34,43.34,0,0,1-1,9.74A16.94,16.94,0,0,1,209.5,39c1.64,1.37,2.89,3.68,3.77,6.9a43.85,43.85,0,0,1,1.31,11.36,58.82,58.82,0,0,1-.85,10.07,30.62,30.62,0,0,1-2.32,8,7.45,7.45,0,0,1-3.62,4,31.48,31.48,0,0,1-6.53,1.09c-3,.24-6.09.45-9.14.64Zm5.42,13.43V33.35l3.55.06a16.9,16.9,0,0,0,3.94-.2c.92-.3,1.65-1.2,2.18-2.71a18.48,18.48,0,0,0,.79-6,20.45,20.45,0,0,0-.68-5.82,4.08,4.08,0,0,0-2-2.83,22.93,22.93,0,0,0-4.63-.52Zm0,31.22v21l5-.26a9,9,0,0,0,3.71-.68,5.34,5.34,0,0,0,2-3.18,22.83,22.83,0,0,0,.76-6.55,24.87,24.87,0,0,0-.58-5.83,7.25,7.25,0,0,0-1.69-3.48c-.74-.73-2.34-1.08-4.8-1.06Z" transform="translate(0)"/><path class="cls-1" d="M219.14,78.6V4.17q9.92,1.16,19.79,2.72V18.56q-7.19-.75-14.39-1.36V33.41q6.71.18,13.39.41V45.5l-13.39.23V65.62q7.46-.63,14.9-1.41v11.6Q229.32,77.41,219.14,78.6Z" transform="translate(0)"/><path class="cls-1" d="M244,75.06V7.72c3.77.63,7.52,1.31,11.28,2a11.27,11.27,0,0,1,6.16,2.87,14.61,14.61,0,0,1,3.08,6.31,36.35,36.35,0,0,1,1.15,9.49,29.35,29.35,0,0,1-1.75,10.94c-1.16,2.9-2.91,4.81-5.23,5.65a23.34,23.34,0,0,1,2.86,5c.75,1.81,1.77,5,3,9.48q1.61,5.59,3.22,10.91-3.18.7-6.38,1.36-1.92-6.22-3.86-12.8c-1.37-4.7-2.31-7.76-2.82-9a6.5,6.5,0,0,0-1.6-2.58,4.06,4.06,0,0,0-2.7-.64l-1.09,0V74.12Q246.7,74.62,244,75.06Zm5.36-38.72,4,.12c2.56.07,4.16-.14,4.8-.62a4.86,4.86,0,0,0,1.5-2.55,16.3,16.3,0,0,0,.54-4.57,15.47,15.47,0,0,0-.71-5.09,4.6,4.6,0,0,0-2-2.68,20.51,20.51,0,0,0-3.91-.71l-4.18-.51Z" transform="translate(0)"/><path class="cls-1" d="M270.84,69.77V13.48c1.78.4,3.55.8,5.32,1.22V59.39q6.6-1.05,13.16-2.21v8Q280.13,67.67,270.84,69.77Z" transform="translate(0)"/><path class="cls-1" d="M292.92,64.23V18.56c1.76.48,3.51,1,5.27,1.48V62.75C296.43,63.25,294.68,63.75,292.92,64.23Z" transform="translate(0)"/><path class="cls-1" d="M303.24,61.27V21.53l5.1,1.55A175.64,175.64,0,0,0,318.91,46.4V26.51q2.41.81,4.82,1.65V54.65q-2.6.9-5.21,1.77a134.69,134.69,0,0,1-10.41-20.61v24Z" transform="translate(0)"/></g></g></svg>